<svg version="1.0" xmlns="http://www.w3.org/2000/svg"
 width="50" height="50" viewBox="0 0 512.000000 512.000000"
 preserveAspectRatio="xMidYMid meet">
<g transform="translate(0.000000,512.000000) scale(0.100000,-0.100000)"
fill="#d2b790" stroke="none">
<path d="M2073 5110 c-55 -12 -94 -32 -177 -93 -60 -45 -76 -51 -127 -55 -54
-4 -67 -1 -145 39 -74 37 -95 43 -148 43 -67 -1 -142 -31 -183 -76 -105 -112
-90 -418 32 -677 80 -168 208 -318 373 -436 l81 -58 -28 -26 c-95 -89 -95
-248 0 -338 63 -60 82 -63 360 -63 217 0 250 -2 245 -15 -3 -8 -117 -198 -254
-422 -137 -224 -277 -456 -312 -514 l-64 -107 -66 -4 c-134 -7 -220 -99 -220
-233 0 -239 325 -318 437 -106 33 63 32 160 -2 219 l-25 44 208 341 c114 188
268 443 343 567 l135 225 92 3 92 3 0 -335 c0 -332 0 -335 -21 -341 -35 -11
-101 -77 -120 -120 -68 -149 46 -327 210 -327 93 0 160 38 206 116 65 111 24
261 -87 319 l-38 19 0 334 0 334 148 0 148 0 77 -52 c620 -428 1069 -1219
1282 -2256 55 -272 49 -383 -32 -551 -83 -173 -248 -304 -435 -345 -66 -15
-213 -16 -1493 -14 l-1420 3 -77 26 c-124 43 -204 93 -298 188 -186 188 -247
413 -189 702 115 579 329 1123 605 1539 112 169 194 270 351 431 83 86 133
144 133 157 0 34 -43 75 -77 75 -37 0 -115 -64 -231 -192 -445 -488 -757
-1148 -927 -1966 -68 -325 -9 -581 187 -816 87 -104 259 -215 399 -257 136
-42 203 -43 1644 -40 l1380 3 80 23 c351 102 586 407 587 762 1 230 -136 777
-299 1190 -230 584 -578 1076 -973 1376 l-88 68 28 40 c70 100 61 214 -23 303
-17 18 -29 34 -26 36 2 2 35 25 73 52 233 163 397 402 452 659 25 117 30 281
10 349 -20 69 -73 132 -131 158 -92 40 -168 33 -260 -24 -35 -22 -66 -32 -105
-35 -66 -5 -107 10 -182 67 -90 67 -140 85 -238 85 -101 0 -140 -15 -248 -94
-65 -47 -81 -54 -131 -58 -67 -5 -108 10 -183 67 -30 22 -75 50 -101 61 -53
24 -153 33 -214 20z m151 -154 c18 -7 61 -35 96 -61 83 -61 120 -75 205 -82
98 -8 166 14 252 79 81 61 119 78 173 78 52 0 95 -18 162 -68 100 -75 132 -86
239 -87 94 0 97 1 181 44 85 44 87 44 125 30 61 -23 76 -62 69 -184 -7 -140
-30 -234 -86 -351 -83 -172 -210 -310 -395 -429 -127 -82 -134 -85 -230 -85
-78 0 -88 -2 -110 -25 -31 -30 -32 -71 -3 -102 21 -22 28 -23 171 -23 l149 0
29 -29 c37 -37 39 -82 6 -115 -23 -23 -29 -24 -303 -31 -153 -4 -458 -5 -678
-2 -389 6 -399 7 -421 27 -13 12 -25 32 -27 45 -7 35 18 84 47 95 16 6 177 10
401 10 246 0 382 4 395 11 48 25 44 105 -7 128 -17 7 -128 11 -344 11 l-319 0
-78 46 c-225 133 -399 315 -475 496 -49 115 -68 210 -68 329 0 124 9 152 57
174 41 20 69 15 123 -21 124 -82 293 -70 421 31 32 25 73 52 91 60 42 18 109
19 152 1z m634 -2422 c47 -53 9 -138 -61 -138 -84 0 -119 95 -55 149 38 32 81
29 116 -11z m-1154 -378 c21 -9 37 -25 46 -46 12 -29 11 -37 -6 -68 -36 -66
-119 -64 -151 4 -21 43 -3 91 41 110 38 16 31 16 70 0z"/>
</g>
</svg>
