<?xml version="1.0" standalone="no"?>
<svg version="1.0" xmlns="http://www.w3.org/2000/svg"
 width="20" height="20" viewBox="0 0 512.000000 512.000000"
 preserveAspectRatio="xMidYMid meet">
<g transform="translate(0.000000,512.000000) scale(0.100000,-0.100000)"
fill="#18db0a" stroke="none">
<path d="M4645 4439 c-60 -10 -155 -25 -210 -34 -55 -9 -118 -18 -140 -21
-117 -15 -570 -99 -585 -109 -5 -3 -30 -8 -57 -10 -70 -8 -145 -30 -136 -40 4
-4 2 -5 -4 -1 -18 10 -95 -13 -111 -32 -7 -10 -10 -11 -6 -3 5 11 3 13 -10 8
-10 -4 -22 -7 -28 -7 -6 0 -7 -7 -4 -16 5 -13 4 -14 -7 -5 -11 8 -26 6 -65
-10 -29 -12 -49 -25 -46 -30 3 -5 -1 -6 -8 -4 -13 5 -143 -57 -163 -78 -7 -7
-5 -7 4 -2 10 5 12 4 7 -4 -4 -6 -12 -9 -17 -6 -9 6 -71 -32 -77 -47 -2 -4 -9
-8 -16 -8 -7 0 -38 -25 -69 -55 -31 -31 -57 -53 -57 -49 0 4 -7 1 -15 -6 -8
-7 -12 -17 -8 -23 3 -5 1 -7 -4 -4 -13 8 -47 -29 -38 -42 3 -7 0 -8 -9 -5 -9
3 -16 2 -16 -4 0 -5 -18 -29 -40 -53 -46 -51 -109 -136 -93 -126 7 4 15 2 19
-4 4 -7 3 -9 -4 -5 -20 12 -90 -84 -76 -105 4 -8 3 -9 -4 -5 -6 3 -16 -3 -22
-14 -6 -11 -7 -20 -3 -20 4 0 3 -4 -4 -8 -17 -11 -104 -202 -98 -213 4 -5 2
-9 -3 -9 -12 0 -54 -119 -46 -131 3 -5 1 -9 -4 -9 -7 0 -32 -79 -37 -120 -1
-8 -5 -23 -9 -33 -3 -9 -8 -25 -11 -34 -5 -14 -12 -10 -43 19 -58 56 -185 134
-274 168 -140 54 -244 73 -408 72 -314 0 -598 -94 -1027 -338 -112 -64 -203
-117 -203 -119 0 -3 25 -17 57 -32 81 -40 193 -149 268 -262 35 -53 104 -179
154 -281 101 -209 181 -341 249 -415 330 -355 813 -448 1240 -238 62 30 115
54 117 52 1 -2 22 -46 45 -97 l41 -92 -21 -143 c-20 -137 -50 -438 -50 -504
l0 -33 68 0 69 0 7 158 c8 186 30 421 60 622 l21 145 80 -3 c85 -4 380 15 405
25 8 3 33 7 56 8 67 4 234 38 234 48 0 5 6 7 14 4 13 -5 69 6 106 20 18 7 28
9 53 11 10 1 16 6 13 11 -4 5 2 7 13 4 22 -6 211 69 211 83 0 3 -4 3 -8 0 -5
-3 -9 1 -9 9 0 12 3 12 15 3 11 -10 17 -8 28 7 8 10 14 15 14 11 0 -4 14 2 30
14 17 12 27 26 24 32 -4 6 -2 8 4 4 5 -3 33 15 61 40 50 46 51 47 34 68 -18
21 -18 21 3 3 21 -17 22 -17 52 19 17 20 29 41 26 46 -3 4 -1 7 4 6 13 -4 64
60 57 72 -4 6 -3 9 2 8 4 -2 8 -1 8 2 0 3 10 16 23 30 12 13 22 27 22 32 0 4
0 10 0 13 0 3 9 14 21 26 11 11 18 27 15 35 -4 10 -2 12 6 8 8 -5 9 -2 5 10
-4 9 -3 15 2 12 8 -5 36 47 36 69 1 6 9 22 19 37 10 15 14 33 10 39 -5 8 -3 9
6 4 10 -6 12 -4 7 8 -3 10 -2 17 2 17 14 0 80 214 111 360 48 225 62 417 51
700 -5 147 22 378 63 538 9 35 14 68 10 75 -4 7 -3 8 1 4 9 -7 75 160 78 195
1 9 4 15 7 13 6 -4 32 50 30 61 -1 4 4 10 11 15 25 15 3 15 -106 -2z m32 -86
c-4 -3 -7 0 -7 7 0 7 3 10 7 7 3 -4 3 -10 0 -14z m-213 -73 c28 -10 34 -37 16
-70 -5 -10 -35 -35 -67 -55 -104 -68 -245 -187 -374 -315 -76 -76 -161 -148
-215 -184 -167 -112 -299 -221 -449 -371 -257 -257 -444 -522 -548 -780 -57
-141 -150 -439 -187 -605 l-13 -54 -27 32 c-57 68 -125 228 -162 382 -20 83
-23 120 -23 295 0 156 4 220 19 290 75 365 280 691 595 947 74 59 244 178 257
178 3 0 19 10 36 21 40 29 231 113 349 154 277 96 706 169 793 135z m-567 -7
c-4 -3 -10 -3 -14 0 -3 4 0 7 7 7 7 0 10 -3 7 -7z m-390 -80 c-4 -3 -10 -3
-14 0 -3 4 0 7 7 7 7 0 10 -3 7 -7z m-10 -30 c-4 -3 -10 -3 -14 0 -3 4 0 7 7
7 7 0 10 -3 7 -7z m1110 -40 c-4 -3 -7 0 -7 7 0 7 3 10 7 7 3 -4 3 -10 0 -14z
m-1360 -20 c-4 -3 -10 -3 -14 0 -3 4 0 7 7 7 7 0 10 -3 7 -7z m-127 -47 c0 -3
-5 -8 -12 -12 -7 -4 -8 -3 -4 4 7 12 16 16 16 8z m-154 -108 c4 -6 3 -8 -3 -5
-6 4 -16 0 -23 -8 -7 -8 -17 -15 -22 -15 -6 0 0 9 13 20 29 23 26 23 35 8z
m-271 -258 c3 -5 4 -10 1 -10 -3 0 -8 5 -11 10 -3 6 -4 10 -1 10 3 0 8 -4 11
-10z m1143 -72 c-18 -24 -36 -45 -39 -48 -8 -7 -100 -139 -154 -220 -51 -78
-134 -232 -192 -355 -49 -103 -139 -346 -149 -402 -4 -21 -10 -45 -15 -54 -10
-19 -33 -125 -59 -274 -43 -238 -72 -326 -133 -404 -81 -104 -177 -148 -286
-130 -81 13 -87 23 -71 111 21 122 97 410 146 555 75 227 189 437 357 663 93
125 251 294 382 409 100 88 230 191 241 191 3 0 -10 -19 -28 -42z m659 -695
c-4 -3 -7 0 -7 7 0 7 3 10 7 7 3 -4 3 -10 0 -14z m-160 -470 c-4 -3 -7 0 -7 7
0 7 3 10 7 7 3 -4 3 -10 0 -14z m-2462 -193 c3 -5 4 -10 1 -10 -3 0 -8 5 -11
10 -3 6 -4 10 -1 10 3 0 8 -4 11 -10z m2318 -115 c-3 -9 -8 -14 -10 -11 -3 3
-2 9 2 15 9 16 15 13 8 -4z m-153 -209 c0 -3 -5 -8 -12 -12 -7 -4 -8 -3 -4 4
7 12 16 16 16 8z m-65 -26 c3 -5 4 -10 1 -10 -3 0 -8 5 -11 10 -3 6 -4 10 -1
10 3 0 8 -4 11 -10z m-265 -164 c0 -2 -7 -7 -16 -10 -8 -3 -12 -2 -9 4 6 10
25 14 25 6z m-283 -83 c-4 -3 -10 -3 -14 0 -3 4 0 7 7 7 7 0 10 -3 7 -7z
m-134 -20 c-7 -2 -19 -2 -25 0 -7 3 -2 5 12 5 14 0 19 -2 13 -5z m-724 -73 c0
-9 -6 -4 -14 10 -19 33 -19 49 0 24 8 -10 14 -26 14 -34z"/>
</g>
</svg>
