<?xml version="1.0" standalone="no"?> <svg version="1.0" xmlns="http://www.w3.org/2000/svg" width="20" height="20" viewBox="0 0 64.000000 64.000000" preserveAspectRatio="xMidYMid meet"> <g transform="translate(0.000000,64.000000) scale(0.100000,-0.100000)" fill="#ffffff" stroke="none"> <path d="M250 563 c-20 -17 -25 -30 -25 -71 0 -47 -1 -49 -20 -36 -24 17 -84 18 -107 1 -21 -17 -48 -94 -41 -116 11 -31 46 -61 80 -67 l34 -6 -25 -27 c-19 -20 -26 -38 -26 -68 0 -35 5 -44 33 -62 17 -11 39 -26 47 -32 25 -18 88 13 104 52 l13 31 20 -35 c14 -23 34 -39 58 -47 32 -11 39 -10 58 8 12 11 32 25 45 31 33 17 31 85 -4 122 l-25 27 34 6 c34 6 69 36 80 67 7 22 -20 99 -41 116 -23 17 -83 16 -107 -1 -19 -13 -20 -11 -20 35 0 65 -25 90 -91 92 -37 2 -55 -3 -74 -20z m91 -207 c22 19 22 19 9 -5 -11 -21 -10 -26 6 -38 17 -12 17 -13 -4 -13 -13 0 -22 -6 -22 -15 0 -8 -4 -15 -10 -15 -5 0 -10 7 -10 15 0 9 -9 15 -22 15 -21 0 -21 1 -4 13 16 12 17 17 6 38 -13 24 -13 24 9 5 21 -19 21 -19 42 0z"/> </g> </svg>